<svg xmlns="http://www.w3.org/2000/svg" viewBox="0 0 578.92 919.34"><defs><style>.cls-1{fill:#e2b78c;}.cls-2{fill:#a1272d;}.cls-3{fill:#c1272d;}.cls-4{fill:#ed1e79;}.cls-5,.cls-7{fill:#fff;}.cls-6{fill:#ca9c7b;}.cls-6,.cls-7{stroke:#000;}.cls-6,.cls-7,.cls-8{stroke-miterlimit:10;}.cls-8{stroke:#fff;}.cls-9{fill:#ffd364;}</style></defs><title>avatartic</title><g id="Calque_2" data-name="Calque 2"><g id="Calque_60" data-name="Calque 60"><ellipse class="cls-1" cx="297.76" cy="374.24" rx="241.74" ry="274.15"/><ellipse class="cls-1" cx="297.76" cy="451.6" rx="126.87" ry="244.1"/><ellipse class="cls-1" cx="56.01" cy="374.24" rx="56.01" ry="88.26"/><ellipse class="cls-1" cx="524.79" cy="369.08" rx="54.14" ry="87.31"/><circle class="cls-1" cx="65.26" cy="457.18" r="31.84"/><circle class="cls-1" cx="521.41" cy="457.18" r="31.84"/><rect class="cls-1" x="225.29" y="653.35" width="144.93" height="192.87"/><circle cx="216.74" cy="324.39" r="49.47"/><circle cx="370.77" cy="324.39" r="49.47"/><path class="cls-2" d="M185.53,438.12h0Z"/><path class="cls-3" d="M310.38,587.14c-26.2-3.46-59.67,2.5-60.75,17.88l.17.05C250.84,589.71,284.19,583.73,310.38,587.14Z"/><path class="cls-3" d="M254.94,606.5q5.44,1.42,11,2.46a44.63,44.63,0,0,0-10.11-2.37Z"/><path class="cls-3" d="M370,496.28v26.24c0,2.95-71.51,2.95-71.51,0V503q-2.86,0-5.71,0v19.47c0,2.95-71.51,2.95-71.51,0V496.28c-46.73-9.16-44.91,79.95,14.2,103.78A79.9,79.9,0,0,1,257.09,570a44.81,44.81,0,0,0,24.69-12.91,56,56,0,0,1,26.12-.29,44.74,44.74,0,0,0,24.53,12,79.38,79.38,0,0,1,23.08,31.33C414.77,576.42,416.73,487.12,370,496.28Z"/><path class="cls-2" d="M332.43,568.86a44.74,44.74,0,0,1-24.53-12,56,56,0,0,0-26.12.29A44.81,44.81,0,0,1,257.09,570a79.9,79.9,0,0,0-21.63,30.05q6.93,2.79,14.17,5c1.08-15.37,34.55-21.34,60.75-17.88,16.67,2.17,30.42,8.15,31.08,17.93q7.17-2.12,14-4.88A79.38,79.38,0,0,0,332.43,568.86Z"/><path class="cls-4" d="M341.3,605.12c-.6-9.79-14.28-15.78-30.92-18-26.19-3.41-59.54,2.57-60.58,17.93,1.7.5,3.41,1,5.14,1.44l.92.09A44.63,44.63,0,0,1,266,609a161.87,161.87,0,0,0,75.32-3.84Z"/><path class="cls-4" d="M341.3,605.12l.17-.05c-.66-9.78-14.41-15.76-31.08-17.93C327,589.33,340.7,595.33,341.3,605.12Z"/><path class="cls-5" d="M184.87,438.16l.45,0-.46,0Z"/><path class="cls-5" d="M292.77,522.52V503a391,391,0,0,1-71.51-6.77v26.24C221.26,525.47,292.77,525.47,292.77,522.52Z"/><path class="cls-5" d="M370,522.52V496.28A391,391,0,0,1,298.49,503v19.47C298.49,525.47,370,525.47,370,522.52Z"/><circle class="cls-6" cx="253.17" cy="436.39" r="27.43"/><circle class="cls-6" cx="334.43" cy="436.39" r="27.43"/><ellipse class="cls-6" cx="291.11" cy="397.12" rx="43.35" ry="72.04"/><path class="cls-7" d="M269.78,918.2a9.75,9.75,0,0,1,19.5,0c0,.22,0,.43,0,.65h8.48L296.6,687.7l-32.82,24-96.5-3c-31,19.48-66.5,32-66.5,32l-43,80.5s-20,71.5-13,90a31.82,31.82,0,0,0,4.1,7.65H269.81C269.8,918.63,269.78,918.41,269.78,918.2Z"/><path class="cls-7" d="M550.73,911.2c7-18.5-13-90-13-90l-43-80.5s-35.51-12.52-66.5-32l-96.5,3-32.82-24-1.13,231.15H546.63A31.82,31.82,0,0,0,550.73,911.2Z"/><path d="M327.91,730.31a30.16,30.16,0,1,1-30.16-30.16A30.16,30.16,0,0,1,327.91,730.31Z"/><polygon class="cls-7" points="168.78 680.2 142.28 747.7 165.28 726.2 182.78 750.2 223.78 680.2 168.78 680.2"/><polygon class="cls-7" points="418.75 680.2 445.25 747.7 422.25 726.2 404.75 750.2 363.75 680.2 418.75 680.2"/><path d="M198.91,686.95c-15.55,18.82-38.5,58.5-4,92s82.39-26.48,82.39-26.48l5.44-48.3S227.41,652.45,198.91,686.95Z"/><path d="M394.3,686.95c15.55,18.82,38.5,58.5,4,92s-82.39-26.48-82.39-26.48l-5.44-48.3S365.8,652.45,394.3,686.95Z"/><circle class="cls-8" cx="279.53" cy="803.95" r="9.75"/><circle class="cls-8" cx="279.53" cy="863.45" r="9.75"/><path class="cls-8" d="M289.28,918.2a9.75,9.75,0,0,0-19.5,0c0,.22,0,.43,0,.65h19.43C289.26,918.63,289.28,918.41,289.28,918.2Z"/><circle class="cls-7" cx="65.03" cy="464.31" r="9.23"/><circle class="cls-7" cx="507.83" cy="464.31" r="9.23"/><path class="cls-9" d="M56.6,261.12C87.68,156.25,182.2,80,294,80c111.37,0,205.6,75.72,237,180C538.25,284,49.57,284.86,56.6,261.12Z"/><path class="cls-9" d="M264.36.42C302.22,52.5,304.59,126,265.49,181.32c-39,55.14-107.12,75.3-166.57,54.37C85.19,230.87,255.8-11.37,264.36.42Z"/><path class="cls-9" d="M325.16.42C363,52.5,365.39,126,326.29,181.32c-39,55.14-107.12,75.3-166.57,54.37C146,230.87,316.6-11.37,325.16.42Z"/><path class="cls-9" d="M383.21.42C421.07,52.5,423.44,126,384.34,181.32c-39,55.14-107.12,75.3-166.57,54.37C204,230.87,374.65-11.37,383.21.42Z"/></g></g></svg>